<svg id="visual" viewBox="0 0 1920 1080" width="1920" height="1080" xmlns="http://www.w3.org/2000/svg" xmlns:xlink="http://www.w3.org/1999/xlink" version="1.1"><path d="M0 866L35.5 876C71 886 142 906 213.2 904.7C284.3 903.3 355.7 880.7 426.8 884.8C498 889 569 920 640 931.3C711 942.7 782 934.3 853.2 921C924.3 907.7 995.7 889.3 1066.8 878C1138 866.7 1209 862.3 1280 875.2C1351 888 1422 918 1493.2 934.7C1564.3 951.3 1635.7 954.7 1706.8 950.2C1778 945.7 1849 933.3 1884.5 927.2L1920 921L1920 1081L1884.5 1081C1849 1081 1778 1081 1706.8 1081C1635.7 1081 1564.3 1081 1493.2 1081C1422 1081 1351 1081 1280 1081C1209 1081 1138 1081 1066.8 1081C995.7 1081 924.3 1081 853.2 1081C782 1081 711 1081 640 1081C569 1081 498 1081 426.8 1081C355.7 1081 284.3 1081 213.2 1081C142 1081 71 1081 35.5 1081L0 1081Z" fill="#1b202c" stroke-linecap="round" stroke-linejoin="miter"></path></svg>